<svg xmlns="http://www.w3.org/2000/svg" viewBox="0 0 900 600" role="img" aria-labelledby="title">
<title id="title">Bandeira do Vaticano</title>
<rect width="450" height="600" fill="#FFD700"/>
<rect x="450" width="450" height="600" fill="#FFF"/>
<g transform="translate(675 300)">
  <g fill="none" stroke-linecap="round" stroke-linejoin="round">
    <path d="M-85 110L78-88" stroke="#d2aa1f" stroke-width="18"/>
    <path d="M85 110L-78-88" stroke="#b7b7b7" stroke-width="18"/>
    <circle cx="-85" cy="110" r="22" fill="#d2aa1f" stroke="#d2aa1f"/>
    <circle cx="85" cy="110" r="22" fill="#b7b7b7" stroke="#b7b7b7"/>
    <path d="M-85 132l-28 38m198-38l28 38" stroke-width="14" stroke="#9d7e0d"/>
    <path d="M-105 150c62 34 148 34 210 0" stroke="#d2aa1f" stroke-width="12"/>
    <path d="M-105 150c62-22 148-22 210 0" stroke="#b7b7b7" stroke-width="12"/>
  </g>
  <g fill="#d2aa1f">
    <path d="M-74-58h148l-16 42H-58z"/>
    <path d="M-58-12h116L42 28h-84z"/>
    <path d="M-42 32h84L24 70h-48z"/>
    <rect x="-11" y="-130" width="22" height="70"/>
    <rect x="-38" y="-117" width="76" height="18"/>
    <circle cx="0" cy="-143" r="10"/>
  </g>
  <path d="M-76-71c23-34 129-34 152 0" fill="none" stroke="#d2aa1f" stroke-width="12"/>
  <path d="M-52-6c18-19 86-19 104 0M-35 39c13-12 57-12 70 0" fill="none" stroke="#fff" stroke-width="6"/>
</g>
</svg>