<svg xmlns="http://www.w3.org/2000/svg" viewBox="0 0 760 620" role="img" aria-labelledby="title">
<title id="title">Jovens católicos diante de uma igreja</title>
<defs>
  <linearGradient id="sun" x1="0" y1="0" x2="1" y2="1">
    <stop stop-color="#ffe56a"/>
    <stop offset="1" stop-color="#ffd000"/>
  </linearGradient>
</defs>
<circle cx="510" cy="240" r="185" fill="url(#sun)" opacity=".95"/>
<circle cx="510" cy="240" r="230" fill="none" stroke="#ffd000" stroke-width="2" opacity=".35"/>
<path d="M74 515h615" stroke="#102a43" stroke-width="8" stroke-linecap="round"/>
<g fill="#fff" stroke="#102a43" stroke-width="8" stroke-linejoin="round">
  <path d="M315 500V245l120-88 120 88v255z"/>
  <path d="M275 500V305h40v195M555 500V305h40v195"/>
  <path d="M405 500V385c0-35 60-35 60 0v115z" fill="#ffd000"/>
  <path d="M350 300h46v70h-46zm124 0h46v70h-46z"/>
</g>
<g stroke="#102a43" stroke-width="9" stroke-linecap="round">
  <path d="M435 83v88M405 112h60"/>
</g>
<g fill="#102a43">
  <circle cx="150" cy="382" r="34"/>
  <path d="M110 500c4-74 13-103 40-103s37 29 40 103z"/>
  <circle cx="230" cy="365" r="31"/>
  <path d="M194 500c3-80 11-112 36-112s34 32 37 112z"/>
  <circle cx="625" cy="385" r="32"/>
  <path d="M590 500c3-72 11-101 35-101 25 0 34 29 37 101z"/>
</g>
<g fill="none" stroke="#fff" stroke-width="8" stroke-linecap="round">
  <path d="M127 430l-35-38m80 38l32-43"/>
  <path d="M209 424l-37-31m78 30l34-40"/>
  <path d="M607 433l-34-35m72 32l31-37"/>
</g>
<path d="M226 295c25-45 82-66 127-43" fill="none" stroke="#102a43" stroke-width="7" stroke-linecap="round"/>
<circle cx="238" cy="288" r="8" fill="#ffd000"/>
<circle cx="255" cy="269" r="8" fill="#ffd000"/>
<circle cx="277" cy="255" r="8" fill="#ffd000"/>
<circle cx="301" cy="247" r="8" fill="#ffd000"/>
<circle cx="326" cy="248" r="8" fill="#ffd000"/>
<path d="M344 251l18 23m-9-12l22-17" stroke="#102a43" stroke-width="6" stroke-linecap="round"/>
</svg>